{
	"asset":{
		"generator":"Khronos glTF Blender I/O v3.5.30",
		"version":"2.0"
	},
	"scene":0,
	"scenes":[
		{
			"name":"Scene",
			"nodes":[
				0
			]
		}
	],
	"nodes":[
		{
			"mesh":0,
			"name":"Cube"
		}
	],
	"animations":[
		{
			"channels":[
				{
					"sampler":0,
					"target":{
						"node":0,
						"path":"rotation"
					}
				}
			],
			"name":"CubeAction",
			"samplers":[
				{
					"input":4,
					"interpolation":"LINEAR",
					"output":5
				}
			]
		}
	],
	"meshes":[
		{
			"name":"Cube.001",
			"primitives":[
				{
					"attributes":{
						"POSITION":0,
						"TEXCOORD_0":1,
						"NORMAL":2
					},
					"indices":3
				}
			]
		}
	],
	"accessors":[
		{
			"bufferView":0,
			"componentType":5126,
			"count":296,
			"max":[
				3.2122623920440674,
				1,
				3.490016460418701
			],
			"min":[
				-3.2122623920440674,
				-0.9999999403953552,
				-2.5468034744262695
			],
			"type":"VEC3"
		},
		{
			"bufferView":1,
			"componentType":5126,
			"count":296,
			"type":"VEC2"
		},
		{
			"bufferView":2,
			"componentType":5126,
			"count":296,
			"type":"VEC3"
		},
		{
			"bufferView":3,
			"componentType":5123,
			"count":864,
			"type":"SCALAR"
		},
		{
			"bufferView":4,
			"componentType":5126,
			"count":151,
			"max":[
				6.25
			],
			"min":[
				0
			],
			"type":"SCALAR"
		},
		{
			"bufferView":5,
			"componentType":5126,
			"count":151,
			"type":"VEC4"
		}
	],
	"bufferViews":[
		{
			"buffer":0,
			"byteLength":3552,
			"byteOffset":0,
			"target":34962
		},
		{
			"buffer":0,
			"byteLength":2368,
			"byteOffset":3552,
			"target":34962
		},
		{
			"buffer":0,
			"byteLength":3552,
			"byteOffset":5920,
			"target":34962
		},
		{
			"buffer":0,
			"byteLength":1728,
			"byteOffset":9472,
			"target":34963
		},
		{
			"buffer":0,
			"byteLength":604,
			"byteOffset":11200
		},
		{
			"buffer":0,
			"byteLength":2416,
			"byteOffset":11804
		}
	],
	"buffers":[
		{
			"byteLength":14220,
			"uri":"data:application/octet-stream;base64,"
		}
	]
}
