{
	"asset":{
		"generator":"Khronos glTF Blender I/O v3.5.30",
		"version":"2.0"
	},
	"scene":0,
	"scenes":[
		{
			"name":"Scene",
			"nodes":[
				0
			]
		}
	],
	"nodes":[
		{
			"mesh":0,
			"name":"Mobius"
		}
	],
	"animations":[
		{
			"channels":[
				{
					"sampler":0,
					"target":{
						"node":0,
						"path":"rotation"
					}
				}
			],
			"name":"MobiusAction",
			"samplers":[
				{
					"input":4,
					"interpolation":"LINEAR",
					"output":5
				}
			]
		}
	],
	"meshes":[
		{
			"name":"Cube.002",
			"primitives":[
				{
					"attributes":{
						"POSITION":0,
						"TEXCOORD_0":1,
						"NORMAL":2
					},
					"indices":3
				}
			]
		}
	],
	"accessors":[
		{
			"bufferView":0,
			"componentType":5126,
			"count":1386,
			"max":[
				4.299708843231201,
				1.0004583597183228,
				4.557613372802734
			],
			"min":[
				-4.299708843231201,
				-1.0004583597183228,
				-3.6228339672088623
			],
			"type":"VEC3"
		},
		{
			"bufferView":1,
			"componentType":5126,
			"count":1386,
			"type":"VEC2"
		},
		{
			"bufferView":2,
			"componentType":5126,
			"count":1386,
			"type":"VEC3"
		},
		{
			"bufferView":3,
			"componentType":5123,
			"count":4152,
			"type":"SCALAR"
		},
		{
			"bufferView":4,
			"componentType":5126,
			"count":150,
			"max":[
				6.25
			],
			"min":[
				0.041666666666666664
			],
			"type":"SCALAR"
		},
		{
			"bufferView":5,
			"componentType":5126,
			"count":150,
			"type":"VEC4"
		}
	],
	"bufferViews":[
		{
			"buffer":0,
			"byteLength":16632,
			"byteOffset":0,
			"target":34962
		},
		{
			"buffer":0,
			"byteLength":11088,
			"byteOffset":16632,
			"target":34962
		},
		{
			"buffer":0,
			"byteLength":16632,
			"byteOffset":27720,
			"target":34962
		},
		{
			"buffer":0,
			"byteLength":8304,
			"byteOffset":44352,
			"target":34963
		},
		{
			"buffer":0,
			"byteLength":600,
			"byteOffset":52656
		},
		{
			"buffer":0,
			"byteLength":2400,
			"byteOffset":53256
		}
	],
	"buffers":[
		{
			"byteLength":55656,
			"uri":"data:application/octet-stream;base64,"
		}
	]
}
